<svg width="122" height="23" viewBox="0 0 122 23" fill="none" xmlns="http://www.w3.org/2000/svg">
<path d="M33.1203 1.99226C34.3673 3.21598 35.0716 4.87789 35.0786 6.61335V22.493H29.4166V8.7978C29.3925 7.86579 29.1288 6.95508 28.6503 6.15118C28.3839 5.82444 28.0469 5.56059 27.6639 5.37888C27.2809 5.19717 26.8616 5.1022 26.4367 5.10093C25.5845 5.11155 24.7486 5.33247 24.0051 5.74336C23.2615 6.15425 22.634 6.74218 22.1796 7.45359C21.0984 9.07537 20.5214 10.9736 20.5193 12.9148V22.493H14.6445V8.7978C14.6349 7.87683 14.3699 6.97605 13.8782 6.19323C13.6073 5.84755 13.2584 5.56885 12.8594 5.37926C12.4604 5.18968 12.0221 5.09439 11.5793 5.10093C10.4512 5.09513 9.3603 5.49891 8.51421 6.23528C7.59092 7.01122 6.88696 8.00986 6.47082 9.13395C5.96389 10.3316 5.70338 11.6168 5.70451 12.9148V22.493H0V1.19407H5.15113L5.61941 4.93299C6.3604 3.4777 7.51403 2.26623 8.93995 1.44612C10.4039 0.622164 12.0653 0.201502 13.7504 0.227928C15.2508 0.191144 16.7298 0.585146 18.0075 1.36214C19.1781 2.10567 20.0159 3.26304 20.349 4.59684C21.1915 3.2796 22.3457 2.18406 23.7121 1.40419C24.9947 0.633665 26.4676 0.226693 27.9692 0.227928C28.9039 0.165973 29.8416 0.290185 30.7265 0.593308C31.6115 0.896431 32.4255 1.37219 33.1203 1.99226Z" fill="#231F20"/>
<path d="M63.942 1.19413V22.4931H58.2374V19.3423C57.322 20.3512 56.243 21.2031 55.0446 21.8629C53.6293 22.6457 52.0263 23.0375 50.4043 22.9972C48.4659 23.0154 46.5521 22.5684 44.8275 21.6949C43.182 20.826 41.834 19.4958 40.9535 17.872C39.9599 15.9938 39.4621 13.8989 39.5061 11.7806C39.468 9.6446 39.9807 7.53395 40.9962 5.64715C41.8915 3.9088 43.2631 2.45329 44.9552 1.44618C46.6043 0.485454 48.4895 -0.00869599 50.4043 0.0178677C51.9405 -0.0753076 53.4748 0.228245 54.8559 0.898624C56.237 1.569 57.4171 2.58307 58.28 3.84076L58.6631 0.984136L63.942 1.19413ZM55.9386 17.2418C57.0478 16.3916 57.8532 15.2143 58.2374 13.8811V9.26004C57.8201 7.96609 56.9822 6.84392 55.8534 6.06727C54.6022 5.22386 53.1106 4.79698 51.5963 4.84895C50.7396 4.83669 49.8896 4.99825 49.0987 5.32343C48.3079 5.64861 47.5931 6.13054 46.9987 6.73944C46.2819 7.50399 45.7455 8.41558 45.4279 9.40889C45.1104 10.4022 45.0196 11.4526 45.162 12.4846C45.3044 13.5166 45.6766 14.5048 46.2517 15.3782C46.8269 16.2515 47.5908 16.9884 48.4886 17.5359C49.4946 18.1202 50.642 18.425 51.8092 18.4181C53.2824 18.5122 54.7428 18.0962 55.9386 17.2418Z" fill="#231F20"/>
<path d="M77.5222 3.04251C78.5014 2.2037 79.5894 1.49733 80.7576 0.942032C81.6388 0.527613 82.5928 0.285186 83.5673 0.22794L83.3119 5.85722C81.8394 5.70617 80.3551 5.99903 79.0548 6.69733C77.8749 7.37835 76.8926 8.34774 76.2025 9.51204C75.5337 10.6781 75.1817 11.995 75.1808 13.3349V22.493H69.4763V1.19408H74.6273L75.0531 6.10927C75.6553 4.9314 76.4956 3.88768 77.5222 3.04251Z" fill="#231F20"/>
<path d="M110.387 1.19415V22.4931H104.682V19.3423C103.776 20.3609 102.695 21.2141 101.49 21.863C100.074 22.6458 98.4713 23.0375 96.8493 22.9972C94.9109 23.0154 92.9971 22.5685 91.2725 21.6949C89.636 20.8141 88.2911 19.4869 87.3986 17.872C86.4196 15.99 85.9365 13.8953 85.9937 11.7807C85.9362 9.64257 86.4501 7.52712 87.4837 5.64716C88.379 3.90881 89.7507 2.4533 91.4428 1.4462C93.0769 0.486871 94.9481 -0.00746828 96.8493 0.0178828C98.3861 -0.0795275 99.922 0.222253 101.304 0.892998C102.686 1.56374 103.865 2.58005 104.725 3.84078L105.151 0.984151L110.387 1.19415ZM102.384 17.2419C103.519 16.4159 104.331 15.229 104.682 13.8811V9.26006C104.28 7.95866 103.439 6.83209 102.298 6.06728C101.054 5.20999 99.5575 4.78173 98.0413 4.84897C97.1836 4.82903 96.3312 4.98704 95.5392 5.31268C94.7472 5.63832 94.0333 6.12439 93.4436 6.73945C92.81 7.37511 92.3136 8.13098 91.9843 8.96134C91.655 9.79171 91.4998 10.6793 91.528 11.5705C91.5275 12.7652 91.8362 13.9401 92.4247 14.9841C93.0133 16.028 93.8622 16.9065 94.8911 17.536C95.9128 18.1198 97.0736 18.4243 98.2542 18.4181C99.7278 18.5158 101.189 18.0995 102.384 17.2419Z" fill="#231F20"/>
<path d="M116.815 17.2838C117.094 16.9918 117.43 16.7591 117.804 16.6001C118.177 16.4412 118.579 16.3594 118.986 16.3596C119.595 16.3777 120.184 16.5719 120.682 16.9178C121.18 17.2638 121.563 17.7463 121.786 18.3056C122.008 18.865 122.059 19.4764 121.932 20.0639C121.805 20.6515 121.506 21.1895 121.072 21.6108C120.522 22.1649 119.772 22.482 118.986 22.493C118.178 22.5062 117.398 22.2042 116.815 21.6528C116.504 21.3714 116.259 21.0265 116.097 20.6419C115.935 20.2573 115.861 19.8423 115.878 19.4263C115.87 19.0238 115.949 18.6243 116.111 18.2547C116.273 17.8851 116.513 17.5541 116.815 17.2838Z" fill="#231F20"/>
</svg>
